{"skins":[{"joints":[1,2,3,4,5,6],"inverseBindMatrices":45}],"asset":{"version":"2.0","generator":"modlib b3d:to_gltf"},"textures":[{"name":"palette"},{"name":"palette.001"},{"name":"palette.003"},{"name":"palette.005"},{"name":"palette.008"}],"buffers":[{"uri":"data:application/octet-stream;base64,","byteLength":969040}],"accessors":[{"byteOffset":0,"bufferView":0,"max":[1.9333333333333333],"type":"SCALAR","count":116,"min":[0.016666666666666666],"componentType":5126},{"byteOffset":0,"bufferView":1,"type":"VEC3","count":116,"componentType":5126},{"byteOffset":0,"bufferView":2,"max":[1.9333333333333333],"type":"SCALAR","count":116,"min":[0.016666666666666666],"componentType":5126},{"byteOffset":0,"bufferView":3,"type":"VEC3","count":116,"componentType":5126},{"byteOffset":0,"bufferView":4,"max":[1.9333333333333333],"type":"SCALAR","count":116,"min":[0.016666666666666666],"componentType":5126},{"byteOffset":0,"bufferView":5,"type":"VEC4","count":116,"componentType":5126},{"byteOffset":0,"bufferView":6,"max":[1.9333333333333333],"type":"SCALAR","count":116,"min":[0.016666666666666666],"componentType":5126},{"byteOffset":0,"bufferView":7,"type":"VEC3","count":116,"componentType":5126},{"byteOffset":0,"bufferView":8,"max":[1.9333333333333333],"type":"SCALAR","count":116,"min":[0.016666666666666666],"componentType":5126},{"byteOffset":0,"bufferView":9,"type":"VEC3","count":116,"componentType":5126},{"byteOffset":0,"bufferView":10,"max":[1.9333333333333333],"type":"SCALAR","count":116,"min":[0.016666666666666666],"componentType":5126},{"byteOffset":0,"bufferView":11,"type":"VEC4","count":116,"componentType":5126},{"byteOffset":0,"bufferView":12,"max":[1.9333333333333333],"type":"SCALAR","count":116,"min":[0.016666666666666666],"componentType":5126},{"byteOffset":0,"bufferView":13,"type":"VEC3","count":116,"componentType":5126},{"byteOffset":0,"bufferView":14,"max":[1.9333333333333333],"type":"SCALAR","count":116,"min":[0.016666666666666666],"componentType":5126},{"byteOffset":0,"bufferView":15,"type":"VEC3","count":116,"componentType":5126},{"byteOffset":0,"bufferView":16,"max":[1.9333333333333333],"type":"SCALAR","count":116,"min":[0.016666666666666666],"componentType":5126},{"byteOffset":0,"bufferView":17,"type":"VEC4","count":116,"componentType":5126},{"byteOffset":0,"bufferView":18,"max":[1.9333333333333333],"type":"SCALAR","count":116,"min":[0.016666666666666666],"componentType":5126},{"byteOffset":0,"bufferView":19,"type":"VEC3","count":116,"componentType":5126},{"byteOffset":0,"bufferView":20,"max":[1.9333333333333333],"type":"SCALAR","count":116,"min":[0.016666666666666666],"componentType":5126},{"byteOffset":0,"bufferView":21,"type":"VEC3","count":116,"componentType":5126},{"byteOffset":0,"bufferView":22,"max":[1.9333333333333333],"type":"SCALAR","count":116,"min":[0.016666666666666666],"componentType":5126},{"byteOffset":0,"bufferView":23,"type":"VEC4","count":116,"componentType":5126},{"byteOffset":0,"bufferView":24,"max":[1.9333333333333333],"type":"SCALAR","count":116,"min":[0.016666666666666666],"componentType":5126},{"byteOffset":0,"bufferView":25,"type":"VEC3","count":116,"componentType":5126},{"byteOffset":0,"bufferView":26,"max":[1.9333333333333333],"type":"SCALAR","count":116,"min":[0.016666666666666666],"componentType":5126},{"byteOffset":0,"bufferView":27,"type":"VEC3","count":116,"componentType":5126},{"byteOffset":0,"bufferView":28,"max":[1.9333333333333333],"type":"SCALAR","count":116,"min":[0.016666666666666666],"componentType":5126},{"byteOffset":0,"bufferView":29,"type":"VEC4","count":116,"componentType":5126},{"byteOffset":0,"bufferView":30,"max":[1.9333333333333333],"type":"SCALAR","count":116,"min":[0.016666666666666666],"componentType":5126},{"byteOffset":0,"bufferView":31,"type":"VEC3","count":116,"componentType":5126},{"byteOffset":0,"bufferView":32,"max":[1.9333333333333333],"type":"SCALAR","count":116,"min":[0.016666666666666666],"componentType":5126},{"byteOffset":0,"bufferView":33,"type":"VEC3","count":116,"componentType":5126},{"byteOffset":0,"bufferView":34,"max":[1.9333333333333333],"type":"SCALAR","count":116,"min":[0.016666666666666666],"componentType":5126},{"byteOffset":0,"bufferView":35,"type":"VEC4","count":116,"componentType":5126},{"byteOffset":0,"bufferView":36,"max":[0.42000028491020203,0.059686347842216492,5.2808465957641602],"type":"VEC3","count":19424,"min":[-0.42000022530555725,-3.2845358848571777,-3.3991537094116211],"componentType":5126},{"byteOffset":0,"bufferView":37,"type":"VEC2","count":19424,"componentType":5126},{"byteOffset":0,"bufferView":38,"type":"VEC4","count":19424,"componentType":5123},{"byteOffset":0,"bufferView":39,"type":"VEC4","count":19424,"componentType":5126},{"byteOffset":0,"bufferView":40,"type":"SCALAR","count":312,"componentType":5125},{"byteOffset":0,"bufferView":41,"type":"SCALAR","count":132,"componentType":5125},{"byteOffset":0,"bufferView":42,"type":"SCALAR","count":18816,"componentType":5125},{"byteOffset":0,"bufferView":43,"type":"SCALAR","count":108,"componentType":5125},{"byteOffset":0,"bufferView":44,"type":"SCALAR","count":84,"componentType":5125},{"byteOffset":0,"bufferView":45,"type":"MAT4","count":6,"componentType":5126}],"scene":0,"scenes":[{"nodes":[0]}],"materials":[{"alphaMode":"BLEND","name":"palette","pbrMetallicRoughness":{"baseColorFactor":[1,1,1,1],"baseColorTexture":{"index":0},"metallicFactor":0}},{"alphaMode":"BLEND","name":"palette.001","pbrMetallicRoughness":{"baseColorFactor":[1,1,1,1],"baseColorTexture":{"index":1},"metallicFactor":0}},{"alphaMode":"BLEND","name":"palette.003","pbrMetallicRoughness":{"baseColorFactor":[1,1,1,1],"baseColorTexture":{"index":2},"metallicFactor":0}},{"alphaMode":"BLEND","name":"palette.005","pbrMetallicRoughness":{"baseColorFactor":[1,1,1,1],"baseColorTexture":{"index":3},"metallicFactor":0}},{"alphaMode":"BLEND","name":"palette.008","pbrMetallicRoughness":{"baseColorFactor":[1,1,1,1],"baseColorTexture":{"index":4},"metallicFactor":0}}],"bufferViews":[{"buffer":0,"byteLength":464,"byteOffset":0},{"buffer":0,"byteLength":1392,"byteOffset":464},{"buffer":0,"byteLength":464,"byteOffset":1856},{"buffer":0,"byteLength":1392,"byteOffset":2320},{"buffer":0,"byteLength":464,"byteOffset":3712},{"buffer":0,"byteLength":1856,"byteOffset":4176},{"buffer":0,"byteLength":464,"byteOffset":6032},{"buffer":0,"byteLength":1392,"byteOffset":6496},{"buffer":0,"byteLength":464,"byteOffset":7888},{"buffer":0,"byteLength":1392,"byteOffset":8352},{"buffer":0,"byteLength":464,"byteOffset":9744},{"buffer":0,"byteLength":1856,"byteOffset":10208},{"buffer":0,"byteLength":464,"byteOffset":12064},{"buffer":0,"byteLength":1392,"byteOffset":12528},{"buffer":0,"byteLength":464,"byteOffset":13920},{"buffer":0,"byteLength":1392,"byteOffset":14384},{"buffer":0,"byteLength":464,"byteOffset":15776},{"buffer":0,"byteLength":1856,"byteOffset":16240},{"buffer":0,"byteLength":464,"byteOffset":18096},{"buffer":0,"byteLength":1392,"byteOffset":18560},{"buffer":0,"byteLength":464,"byteOffset":19952},{"buffer":0,"byteLength":1392,"byteOffset":20416},{"buffer":0,"byteLength":464,"byteOffset":21808},{"buffer":0,"byteLength":1856,"byteOffset":22272},{"buffer":0,"byteLength":464,"byteOffset":24128},{"buffer":0,"byteLength":1392,"byteOffset":24592},{"buffer":0,"byteLength":464,"byteOffset":25984},{"buffer":0,"byteLength":1392,"byteOffset":26448},{"buffer":0,"byteLength":464,"byteOffset":27840},{"buffer":0,"byteLength":1856,"byteOffset":28304},{"buffer":0,"byteLength":464,"byteOffset":30160},{"buffer":0,"byteLength":1392,"byteOffset":30624},{"buffer":0,"byteLength":464,"byteOffset":32016},{"buffer":0,"byteLength":1392,"byteOffset":32480},{"buffer":0,"byteLength":464,"byteOffset":33872},{"buffer":0,"byteLength":1856,"byteOffset":34336},{"buffer":0,"byteLength":233088,"target":34962,"byteOffset":36192},{"buffer":0,"byteLength":155392,"target":34962,"byteOffset":269280},{"buffer":0,"byteLength":155392,"target":34962,"byteOffset":424672},{"buffer":0,"byteLength":310784,"target":34962,"byteOffset":580064},{"buffer":0,"byteLength":1248,"target":34963,"byteOffset":890848},{"buffer":0,"byteLength":528,"target":34963,"byteOffset":892096},{"buffer":0,"byteLength":75264,"target":34963,"byteOffset":892624},{"buffer":0,"byteLength":432,"target":34963,"byteOffset":967888},{"buffer":0,"byteLength":336,"target":34963,"byteOffset":968320},{"buffer":0,"byteLength":384,"byteOffset":968656}],"nodes":[{"mesh":0,"skin":0,"rotation":[-0,0,0,1],"children":[1],"scale":[1,1,1],"name":"m4a1_mesh","translation":[-0,0,0]},{"rotation":[0.49467161297798157,-0.50527215003967285,-0.49467170238494873,0.50527220964431763],"children":[2,3,4,5,6],"scale":[0.70000004768371582,0.70000016689300537,0.70000004768371582],"name":"m4a1_bone","translation":[-2.0959609514648037e-07,-0.82249975204467773,-1.0500000715255737]},{"rotation":[-8.2385277266894263e-08,-1.1092464546891279e-07,-0.71456283330917358,0.69957131147384644],"scale":[1.0000001192092896,1,1],"name":"Magazine","translation":[0.83453166484832764,2.871631383895874,3.4480830635175153e-08]},{"rotation":[-6.9273433211947122e-08,1.7506556204693879e-08,0.69957131147384644,0.71456283330917358],"scale":[0.99999994039535522,1,1],"name":"left_aimpoint","translation":[2.053016185760498,2.8271205425262451,-0.38078173995018005]},{"rotation":[-1.8320177730402065e-07,1.5621085935890733e-07,0.69957202672958374,0.7145620584487915],"scale":[1.0000001192092896,1,1],"name":"right_aimpoint","translation":[2.5653996467590332,-0.40009593963623047,1.1215352913040988e-07]},{"rotation":[3.1893616636580191e-09,2.9819406677233928e-07,-0.010600569657981396,0.99994379281997681],"scale":[1,1.0000001192092896,1],"name":"firing_handle","translation":[-0.55351829528808594,-0.16009828448295593,-2.2940019661632505e-08]},{"rotation":[1.2938332627498994e-09,1.1939019373130577e-07,-0.010600571520626545,0.99994385242462158],"scale":[1,0.99999994039535522,1],"name":"chamber","translation":[0.035017471760511398,2.651484489440918,9.2949647978457506e-11]}],"meshes":[{"primitives":[{"attributes":{"WEIGHTS_0":39,"POSITION":36,"JOINTS_0":38,"TEXCOORD_0":37},"material":0,"indices":40},{"attributes":{"WEIGHTS_0":39,"POSITION":36,"JOINTS_0":38,"TEXCOORD_0":37},"material":1,"indices":41},{"attributes":{"WEIGHTS_0":39,"POSITION":36,"JOINTS_0":38,"TEXCOORD_0":37},"material":2,"indices":42},{"attributes":{"WEIGHTS_0":39,"POSITION":36,"JOINTS_0":38,"TEXCOORD_0":37},"material":3,"indices":43},{"attributes":{"WEIGHTS_0":39,"POSITION":36,"JOINTS_0":38,"TEXCOORD_0":37},"material":4,"indices":44}]}],"animations":[{"channels":[{"sampler":0,"target":{"node":1,"path":"translation"}},{"sampler":1,"target":{"node":1,"path":"scale"}},{"sampler":2,"target":{"node":1,"path":"rotation"}},{"sampler":3,"target":{"node":2,"path":"translation"}},{"sampler":4,"target":{"node":2,"path":"scale"}},{"sampler":5,"target":{"node":2,"path":"rotation"}},{"sampler":6,"target":{"node":3,"path":"translation"}},{"sampler":7,"target":{"node":3,"path":"scale"}},{"sampler":8,"target":{"node":3,"path":"rotation"}},{"sampler":9,"target":{"node":4,"path":"translation"}},{"sampler":10,"target":{"node":4,"path":"scale"}},{"sampler":11,"target":{"node":4,"path":"rotation"}},{"sampler":12,"target":{"node":5,"path":"translation"}},{"sampler":13,"target":{"node":5,"path":"scale"}},{"sampler":14,"target":{"node":5,"path":"rotation"}},{"sampler":15,"target":{"node":6,"path":"translation"}},{"sampler":16,"target":{"node":6,"path":"scale"}},{"sampler":17,"target":{"node":6,"path":"rotation"}}],"samplers":[{"input":0,"output":1},{"input":2,"output":3},{"input":4,"output":5},{"input":6,"output":7},{"input":8,"output":9},{"input":10,"output":11},{"input":12,"output":13},{"input":14,"output":15},{"input":16,"output":17},{"input":18,"output":19},{"input":20,"output":21},{"input":22,"output":23},{"input":24,"output":25},{"input":26,"output":27},{"input":28,"output":29},{"input":30,"output":31},{"input":32,"output":33},{"input":34,"output":35}]}]}